<?xml version="1.0" encoding="UTF-8"?>
<svg id="Layer_2" data-name="Layer 2" xmlns="http://www.w3.org/2000/svg" viewBox="0 0 216.12 502.59">
  <defs>
    <style>
      .cls-1 {
        fill: #e3bf9f;
      }
    </style>
  </defs>
  <g id="Layer_1-2" data-name="Layer 1">
    <path class="cls-1" d="m215.23,238.78c-.97-.97-1.87-2.04-2.82-3.04-.62-.66-1.27-1.29-1.98-1.85-1.92-1.5-4.04-2.95-5.55-4.87-1.62-1.94-2.87-4.48-4.73-6.2-1.39-1.28-2.61-1.52-3.69-3.18-2.41-3.69-2.95-9.47-3.45-13.7-1.08-9.31-.37-18.75-2.17-27.99-.54-2.76-1.29-5.5-1.84-8.27-.42-2.12-.72-4.26-1.02-6.4-1.11-7.95-1.94-15.7-3.87-23.51-2.12-8.54-4.51-17.01-6.76-25.51-2.62-9.84-5.52-20.39-12.02-28.58-1.14-1.44-2.36-2.81-3.87-3.88-1.56-1.09-3.36-1.82-5.15-2.53-6.3-2.48-12.63-4.85-19.01-7.11-1.32-.46-11.7-4.23-13.52-8.13-1.39-5.75-.62-11.97,0-15.27.88-1.59,1.69-3.27,2.42-5,.92.12,3.77.15,4.57-3.74.93-4.5,5.25-13.2-.63-10.73.22-1.72.34-3.39.34-4.99C130.49,9.28,120.44,0,108.06,0c-12.39,0-22.43,9.28-22.43,24.3,0,1.59.12,3.27.34,4.99-5.88-2.46-1.56,6.24-.63,10.73.81,3.9,3.65,3.86,4.57,3.74.73,1.73,1.54,3.41,2.42,5,.61,3.3,1.38,9.52,0,15.27-1.82,3.9-12.2,7.67-13.52,8.13-6.37,2.26-12.71,4.63-19.01,7.11-1.79.71-3.59,1.44-5.15,2.53-1.51,1.07-2.73,2.44-3.87,3.88-6.5,8.19-9.4,18.74-12.02,28.58-2.25,8.5-4.64,16.98-6.76,25.51-1.93,7.81-2.76,15.56-3.87,23.51-.31,2.14-.6,4.27-1.02,6.4-.55,2.76-1.3,5.5-1.84,8.27-1.8,9.24-1.09,18.68-2.17,27.99-.49,4.23-1.04,10-3.45,13.7-1.08,1.65-2.31,1.9-3.69,3.18-1.86,1.72-3.11,4.26-4.73,6.2-1.5,1.92-3.62,3.37-5.55,4.87-.71.55-1.35,1.18-1.98,1.85-.95,1-1.84,2.08-2.82,3.04-.52.51-1.08,1.19-.83,1.87.09.25.29.46.51.62.69.5,1.62.61,2.48.46.85-.15,1.64-.53,2.39-.94,2.49-1.35,4.53-3.18,6.8-4.81.9-.64,2.31-2.38,3.41-2.36,2.62.05-.03,6.68-.48,8.07-.85,2.7-1.72,5.4-2.61,8.1l-2.92,7.82c-.4,1.08.18,2.27,1.3,2.65,1.11.38,2.36-.17,2.76-1.25.61-1.65,1.24-3.32,1.85-4.99.49-1.27.96-2.56,1.44-3.83.19-.54.36-1.09.59-1.6.21-.47.46-1.92,1.09-2.03,1.09-.2.36,1.88.21,2.26-.63,1.47-.99,3.08-1.42,4.63-.5,1.8-1,3.59-1.5,5.39-.24.69-.46,1.39-.59,2.13l-.58,2.06c-.31,1.1.37,2.23,1.53,2.54,1.16.29,2.32-.36,2.64-1.47.49-1.72.82-3.53,1.43-5.2.77-2.11,1.54-4.22,2.5-6.25.2-.42.84-1.7,1.07-.82.07.27-.21,1.18-.27,1.5-.11.64-.27,1.28-.44,1.91-.57,2.16-1.15,4.32-1.74,6.48-.49,1.81-.87,2.99,1.07,3.96,1.16.29,2.34-.37,2.64-1.47l3.08-11.01c.18-.66.37-1.32.55-1.97.19-.68.24-1.56.63-2.13.08-.11.18-.23.31-.22.18.02.24.26.24.45.02,1.27-.48,2.68-.77,3.92-.33,1.44-.68,2.89-.93,4.35-.13.75-.24,1.52-.07,2.25.15.74.61,1.44,1.27,1.62.7.2,1.45-.23,1.9-.85.47-.62.7-1.4.92-2.17.57-4.12,1.99-8.24,3.28-12.2,1.19-3.62,2.12-7.31,3.05-11,1.8-7.07.9-14.46,2.62-21.63,2.17-9.03,4.89-18.27,6.34-27.47.73-4.63,1.04-9.34,2.07-13.92.94-4.13,2.46-8.1,3.89-12.09,1.96-5.47,3.77-11,5.41-16.57,6.45-10.45,8.41,6.94,8.41,6.94,1.33,15.6.7,31.49.45,47.13-.08,4.91-.14,9.81-.89,14.67-1.31,8.47-4.35,16.5-5.73,24.96-1.39,8.52-1.77,17.15-2.1,25.76-.72,19.04-.24,38.15,1.54,57.13.71,7.58,1.42,15.16,2.12,22.74.58,6.17,1.07,12.49,1.06,18.68-.01,5.6-2.38,11.35-3.31,16.94-2.42,14.42-.54,28.76-1.6,43.08-.57,7.65.13,15.65.29,23.32.14,6.57,1.46,13.99.71,20.5-.67,5.83-6.14,10.39-10.53,13.66-3.47,2.59-11.16,5.7-11.54,10.49-.18,2.33,1.26,4.5,1.36,6.83.06,1.32-.32,2.71.17,3.94.52,1.31,1.93,2.1,3.33,2.25s2.8-.23,4.14-.68c6.41-2.12,12.33-5.72,17.16-10.44,2.59-2.53,4.92-5.41,8.05-7.21,1.62-.93,3.41-1.55,4.99-2.54,7.07-4.46,2.64-9.91,3.62-16.16.69-4.41.94-8.89,1.53-13.32,1.08-8.17,2.1-16.35,3.04-24.53,3.1-27,3.85-54.59,8.52-81.36,1.77-10.16,3.55-20.32,5.32-30.48,2.09-11.96,4.17-23.92,6.26-35.88.2-1.14.2-2.49.84-3.5.42-.66,1.11-1,1.78-.9.67-.1,1.36.24,1.78.9.64,1.01.64,2.35.84,3.5,2.09,11.96,4.17,23.92,6.26,35.88,1.77,10.16,3.55,20.32,5.32,30.48,4.67,26.78,5.43,54.36,8.52,81.36.94,8.19,1.96,16.36,3.04,24.53.58,4.43.84,8.91,1.53,13.32.98,6.26-3.45,11.7,3.62,16.16,1.58,1,3.37,1.61,4.99,2.54,3.13,1.8,5.46,4.69,8.05,7.21,4.83,4.72,10.75,8.32,17.16,10.44,1.34.44,2.74.83,4.14.68s2.81-.94,3.33-2.25c.49-1.23.12-2.62.17-3.94.1-2.33,1.54-4.51,1.36-6.83-.37-4.79-8.06-7.9-11.54-10.49-4.39-3.27-9.86-7.83-10.53-13.66-.75-6.51.58-13.93.71-20.5.16-7.67.86-15.66.29-23.32-1.06-14.32.82-28.65-1.6-43.08-.94-5.59-3.3-11.34-3.31-16.94-.01-6.19.48-12.5,1.06-18.68.71-7.58,1.42-15.16,2.12-22.74,1.77-18.98,2.26-38.09,1.54-57.13-.32-8.61-.71-17.25-2.1-25.76-1.38-8.45-4.41-16.49-5.73-24.96-.75-4.86-.81-9.76-.89-14.67-.24-15.64-.88-31.52.45-47.13,0,0,1.96-17.39,8.41-6.94,1.64,5.58,3.45,11.1,5.41,16.57,1.43,3.99,2.95,7.96,3.89,12.09,1.04,4.58,1.34,9.28,2.07,13.92,1.45,9.2,4.17,18.43,6.34,27.47,1.72,7.17.83,14.56,2.62,21.63.94,3.69,1.86,7.37,3.05,11,1.29,3.97,2.71,8.09,3.28,12.2.22.77.45,1.55.92,2.17.46.62,1.21,1.05,1.9.85.65-.18,1.12-.88,1.27-1.62.17-.73.06-1.5-.07-2.25-.26-1.46-.6-2.9-.93-4.35-.29-1.24-.79-2.65-.77-3.92,0-.19.05-.43.24-.45.13-.01.24.11.31.22.39.56.44,1.45.63,2.13.18.66.37,1.32.55,1.97l3.08,11.01c.3,1.1,1.48,1.76,2.64,1.47,1.94-.97,1.56-2.15,1.07-3.96-.59-2.16-1.17-4.32-1.74-6.48-.17-.63-.33-1.26-.44-1.91-.05-.32-.34-1.23-.27-1.5.24-.88.87.4,1.07.82.97,2.03,1.74,4.14,2.5,6.25.61,1.68.94,3.48,1.43,5.2.32,1.11,1.48,1.76,2.64,1.47,1.15-.3,1.84-1.44,1.53-2.54l-.58-2.06c-.13-.74-.35-1.43-.59-2.13-.5-1.8-1-3.59-1.5-5.39-.43-1.55-.79-3.16-1.42-4.63-.16-.38-.88-2.46.21-2.26.64.12.88,1.56,1.09,2.03.23.51.4,1.06.59,1.6.49,1.27.96,2.56,1.44,3.83.61,1.67,1.24,3.33,1.85,4.99.4,1.08,1.64,1.64,2.76,1.25,1.13-.39,1.7-1.57,1.3-2.65l-2.92-7.82c-.89-2.7-1.76-5.4-2.61-8.1-.44-1.39-3.1-8.02-.48-8.07,1.11-.01,2.51,1.72,3.41,2.36,2.27,1.63,4.31,3.46,6.8,4.81.75.41,1.54.79,2.39.94.85.15,1.78.04,2.48-.46.22-.16.42-.36.51-.62.25-.67-.31-1.35-.83-1.87Z"/>
  </g>
</svg>